<?xml version="1.0" standalone="no"?>
<!DOCTYPE svg PUBLIC "-//W3C//DTD SVG 20010904//EN"
 "http://www.w3.org/TR/2001/REC-SVG-20010904/DTD/svg10.dtd">
<svg version="1.0" xmlns="http://www.w3.org/2000/svg"
 width="200.000000pt" height="200.000000pt" viewBox="0 0 200.000000 200.000000"
 preserveAspectRatio="xMidYMid meet">

<g transform="translate(0.000000,200.000000) scale(0.100000,-0.100000)"
fill="#000000" stroke="none">
<path d="M1216 1728 c-21 -30 -20 -71 2 -95 12 -14 40 -23 102 -31 222 -30
402 -201 467 -442 23 -87 23 -253 0 -340 -59 -221 -220 -388 -419 -435 -52
-12 -170 -15 -670 -15 l-607 0 -15 -22 c-22 -31 -20 -74 4 -98 21 -21 28 -21
668 -18 l647 3 67 26 c98 38 171 86 241 156 165 168 234 354 225 613 -5 144
-25 225 -84 343 -110 221 -339 376 -556 377 -48 0 -59 -4 -72 -22z"/>
<path d="M1048 1401 l4 -39 29 17 c16 9 29 18 29 21 0 5 -54 40 -62 40 -2 0
-2 -18 0 -39z"/>
<path d="M1103 1303 c-43 -17 -63 -31 -63 -42 0 -28 -47 -159 -72 -199 -31
-51 -105 -129 -154 -163 -77 -53 -149 -74 -251 -73 -62 0 -93 -3 -93 -10 0
-19 68 -149 93 -179 l24 -28 68 26 c38 14 115 50 172 79 57 30 101 50 97 45
-8 -14 9 -11 36 7 l25 17 -20 -21 c-11 -11 -84 -63 -162 -115 -152 -101 -152
-102 -82 -131 66 -28 154 -38 221 -26 284 51 446 381 338 688 -24 69 -79 152
-100 151 -8 0 -43 -11 -77 -26z"/>
<path d="M894 734 c-18 -14 -18 -15 4 -4 12 6 22 13 22 15 0 8 -5 6 -26 -11z"/>
</g>
</svg>
